<?xml version="1.0" encoding="UTF-8"?>
<svg width="15px" height="12px" viewBox="0 0 15 12" version="1.1" xmlns="http://www.w3.org/2000/svg" xmlns:xlink="http://www.w3.org/1999/xlink">
    <title>Quote</title>
    <g id="Welcome" stroke="none" stroke-width="1" fill="none" fill-rule="evenodd">
        <g id="A-Book" transform="translate(-346.000000, -1328.000000)">
            <path d="M357.6,1339.108 C358.216,1339.108 358.755,1338.926 359.217,1338.562 C359.679,1338.198 359.91,1337.736 359.91,1337.176 C359.91,1336.728 359.735,1336.336 359.385,1336 C359.035,1335.664 358.552,1335.468 357.936,1335.412 C357.46,1335.384 357.068,1335.153 356.76,1334.719 C356.452,1334.285 356.298,1333.9 356.298,1333.564 C356.298,1332.584 356.508,1331.779 356.928,1331.149 C357.348,1330.519 357.866,1330.036 358.482,1329.7 C359.098,1329.364 359.714,1329.126 360.33,1328.986 C360.526,1328.958 360.673,1328.895 360.771,1328.797 C360.869,1328.699 360.918,1328.594 360.918,1328.482 C360.918,1328.174 360.666,1328.02 360.162,1328.02 C359.63,1328.02 359.021,1328.188 358.335,1328.524 C357.649,1328.86 356.984,1329.336 356.34,1329.952 C355.696,1330.568 355.164,1331.303 354.744,1332.157 C354.324,1333.011 354.114,1333.97 354.114,1335.034 C354.114,1336.21 354.443,1337.183 355.101,1337.953 C355.759,1338.723 356.592,1339.108 357.6,1339.108 Z M350.208,1339.108 C350.824,1339.108 351.363,1338.926 351.825,1338.562 C352.287,1338.198 352.518,1337.736 352.518,1337.176 C352.518,1336.728 352.343,1336.336 351.993,1336 C351.643,1335.664 351.16,1335.468 350.544,1335.412 C350.068,1335.384 349.676,1335.153 349.368,1334.719 C349.06,1334.285 348.906,1333.9 348.906,1333.564 C348.906,1332.584 349.116,1331.779 349.536,1331.149 C349.956,1330.519 350.474,1330.036 351.09,1329.7 C351.706,1329.364 352.322,1329.126 352.938,1328.986 C353.134,1328.958 353.281,1328.895 353.379,1328.797 C353.477,1328.699 353.526,1328.594 353.526,1328.482 C353.526,1328.174 353.274,1328.02 352.77,1328.02 C352.238,1328.02 351.629,1328.188 350.943,1328.524 C350.257,1328.86 349.592,1329.336 348.948,1329.952 C348.304,1330.568 347.772,1331.303 347.352,1332.157 C346.932,1333.011 346.722,1333.97 346.722,1335.034 C346.722,1336.21 347.051,1337.183 347.709,1337.953 C348.367,1338.723 349.2,1339.108 350.208,1339.108 Z" id="“" fill="#FFFFFF" fill-rule="nonzero"></path>
        </g>
    </g>
</svg>